<svg width="24" height="24" viewBox="0 0 24 24" fill="none" xmlns="http://www.w3.org/2000/svg">
<path d="M12.1586 10.87C12.0586 10.86 11.9386 10.86 11.8286 10.87C9.44859 10.79 7.55859 8.84 7.55859 6.44C7.55859 3.99 9.53859 2 11.9986 2C14.4486 2 16.4386 3.99 16.4386 6.44C16.4286 8.84 14.5386 10.79 12.1586 10.87Z" stroke="#191B2E" stroke-width="1.5" stroke-linecap="round" stroke-linejoin="round"/>
<path d="M7.1607 14.56C4.7407 16.18 4.7407 18.82 7.1607 20.43C9.9107 22.27 14.4207 22.27 17.1707 20.43C19.5907 18.81 19.5907 16.17 17.1707 14.56C14.4307 12.73 9.9207 12.73 7.1607 14.56Z" stroke="#191B2E" stroke-width="1.5" stroke-linecap="round" stroke-linejoin="round"/>
<path d="M7.16016 14.56C9.92016 12.73 14.4302 12.73 17.1702 14.56" stroke="#191B2E" stroke-width="1.5" stroke-linecap="round" stroke-linejoin="round"/>
</svg>
